<svg width="48" height="48" viewBox="0 0 48 48" fill="none" xmlns="http://www.w3.org/2000/svg">
<path d="M5.25 0.375C4.6125 0.375 4.125 0.8625 4.125 1.5V46.5C4.125 47.1375 4.6125 47.625 5.25 47.625C5.8875 47.625 6.375 47.1375 6.375 46.5V37.5H18C18.6375 37.5 19.125 37.0125 19.125 36.375C19.125 35.7375 18.6375 35.25 18 35.25H6.375V2.625H41.625V20.25C41.625 20.8875 42.1125 21.375 42.75 21.375C43.3875 21.375 43.875 20.8875 43.875 20.25V1.5C43.875 0.8625 43.3875 0.375 42.75 0.375H5.25ZM10.875 6C10.2375 6 9.75 6.4875 9.75 7.125C9.75 7.7625 10.2375 8.25 10.875 8.25H22.0876C22.6501 8.25 23.1375 8.62515 23.25 9.15015C23.4 9.86265 22.8374 10.5 22.1624 10.5H10.875C10.2375 10.5 9.75 10.9875 9.75 11.625V30.75C9.75 31.3875 10.2375 31.875 10.875 31.875H21.0374C22.5374 25.425 28.35 20.625 35.25 20.625C36.2625 20.625 37.275 20.7378 38.25 20.9253V7.125C38.25 6.4875 37.7625 6 37.125 6H10.875ZM27.75 8.25H29.625C30.2625 8.25 30.75 8.7375 30.75 9.375C30.75 10.0125 30.2625 10.5 29.625 10.5H27.75C27.1125 10.5 26.625 10.0125 26.625 9.375C26.625 8.7375 27.1125 8.25 27.75 8.25ZM35.25 22.875C28.425 22.875 22.875 28.425 22.875 35.25C22.875 42.075 28.425 47.625 35.25 47.625C42.075 47.625 47.625 42.075 47.625 35.25C47.625 28.425 42.075 22.875 35.25 22.875ZM40.9263 30.7126C41.2122 30.7126 41.4935 30.8253 41.6997 31.0503C42.1497 31.5003 42.1497 32.2125 41.6997 32.625L35.2874 39.0374C35.0624 39.2624 34.8 39.375 34.5 39.375C34.2 39.375 33.9001 39.2624 33.7126 39.0374L30.5251 35.8499C30.0751 35.3999 30.0751 34.6878 30.5251 34.2378C30.9751 33.7878 31.6874 33.7878 32.0999 34.2378L34.4626 36.6372L40.125 31.0503C40.35 30.8253 40.6403 30.7126 40.9263 30.7126ZM9.75 40.875C9.1125 40.875 8.625 41.3625 8.625 42C8.625 42.6375 9.1125 43.125 9.75 43.125H18.75C19.3875 43.125 19.875 42.6375 19.875 42C19.875 41.3625 19.3875 40.875 18.75 40.875H9.75Z" fill="#084B6D"/>
</svg>