<svg width="48" height="48" viewBox="0 0 48 48" fill="none" xmlns="http://www.w3.org/2000/svg">
<path d="M5.25 7.875C2.55 7.875 0.375 10.05 0.375 12.75V35.8872C0.375 38.2122 2.28779 40.125 4.61279 40.125H42.75C45.45 40.125 47.625 37.95 47.625 35.25V12.1128C47.625 9.78779 45.7122 7.875 43.3872 7.875H5.25ZM5.25 10.125H43.3872C44.4747 10.125 45.375 11.0253 45.375 12.1128V35.25C45.375 36.7125 44.2125 37.875 42.75 37.875H4.61279C3.52529 37.875 2.625 36.9747 2.625 35.8872V12.75C2.625 11.2875 3.7875 10.125 5.25 10.125ZM31.3696 12.7522C31.227 12.7572 31.0828 12.7686 30.9375 12.7874C28.9125 13.0499 27.2624 14.6999 27.0374 16.7249C26.7374 19.4624 28.8375 21.75 31.5 21.75C32.4375 21.75 33.2997 21.4501 34.0122 20.9626C34.4247 20.7001 34.9122 20.7001 35.3247 20.9626C36.0372 21.4501 36.9001 21.75 37.8376 21.75C40.5001 21.75 42.6003 19.4624 42.3003 16.7249C42.1128 14.6999 40.5 13.0499 38.4375 12.7874C37.275 12.6374 36.1872 12.9374 35.3247 13.5374C34.9497 13.7999 34.4253 13.7999 34.0503 13.5374C33.2956 13.0124 32.3684 12.7173 31.3696 12.7522ZM7.61279 30.75C6.97529 30.75 6.48779 31.2375 6.48779 31.875C6.48779 32.5125 6.97529 33 7.61279 33H23.3628C24.0003 33 24.4878 32.5125 24.4878 31.875C24.4878 31.2375 24.0003 30.75 23.3628 30.75H7.61279ZM30.8628 30.75C30.2253 30.75 29.7378 31.2375 29.7378 31.875C29.7378 32.5125 30.2253 33 30.8628 33H34.6128C35.2503 33 35.7378 32.5125 35.7378 31.875C35.7378 31.2375 35.2503 30.75 34.6128 30.75H30.8628Z" fill="#084B6D"/>
</svg>