<svg width="48" height="48" viewBox="0 0 48 48" fill="none" xmlns="http://www.w3.org/2000/svg">
            <path d="M5.21565 11.8857C5.16548 11.8824 5.11414 11.8825 5.06257 11.8872L1.46272 12C0.825219 12.0375 0.337573 12.5249 0.375073 13.1624C0.412573 13.7999 0.937426 14.2875 1.53743 14.25L4.46272 14.1372L13.3126 29.4749C13.5376 29.8499 13.9124 30.0374 14.2874 30.0374C14.4749 30.0374 14.6624 29.9997 14.8499 29.8872C15.3749 29.5872 15.5623 28.8749 15.2623 28.3499L14.8873 27.7126L21.0748 24.1875L22.3873 26.4375C22.6123 26.8125 22.9879 27 23.3629 27C23.5504 27 23.7379 26.9624 23.9254 26.8499C24.4504 26.5499 24.6377 25.8375 24.3377 25.3125L23.0252 23.0625L29.1754 19.5374L37.4254 33.7874L25.3873 40.7249C24.9373 40.9874 24.7129 41.5125 24.8629 42C25.0129 42.4875 25.4248 42.8247 25.9498 42.8247H27.9749C26.9624 44.3622 25.2376 45.4124 23.2501 45.4124H23.2127C22.6127 45.4124 22.0877 45.8999 22.0877 46.5374C22.0877 47.1749 22.5752 47.6624 23.2127 47.6624H23.2501C26.5126 47.6624 29.3252 45.6747 30.5252 42.8247H33.4498C33.6373 42.8247 33.8248 42.7878 34.0123 42.6753L47.0252 35.1753C47.4752 34.9128 47.7004 34.3876 47.5504 33.9001C47.5129 33.8251 47.4751 33.7122 47.4376 33.6372L38.0626 17.4001C37.8751 17.0626 37.5002 16.8376 37.0877 16.8376L29.6251 16.875H29.5877C29.4002 16.875 29.2127 16.9126 29.0252 17.0251L13.7623 25.7622L6.07478 12.4497C5.87791 12.1216 5.56685 11.9088 5.21565 11.8857ZM12.7149 11.8857C12.6647 11.8824 12.6141 11.8825 12.5626 11.8872L9.71272 12C9.07522 12.0375 8.62507 12.5624 8.62507 13.1624C8.66257 13.7999 9.18743 14.25 9.78743 14.25L11.9627 14.1372L15.9376 21C16.1626 21.375 16.5374 21.5625 16.9124 21.5625C17.0999 21.5625 17.2874 21.5249 17.4749 21.4124C17.9999 21.1124 18.1873 20.4 17.8873 19.875L13.5748 12.4497C13.3779 12.1216 13.0661 11.9088 12.7149 11.8857ZM36.4498 19.0503L44.5123 33.0374H39.5999L31.5374 19.125L36.4498 19.0503ZM15.7501 31.875C11.4376 31.875 7.91257 35.3626 7.87507 39.7126C7.83757 44.0626 11.3627 47.5875 15.7127 47.625H15.7501C20.0626 47.625 23.5876 44.1374 23.6251 39.7874C23.6626 35.4374 20.1374 31.9125 15.7874 31.875H15.7501ZM15.7501 34.125H15.7874C18.8999 34.125 21.4126 36.6749 21.3751 39.7874C21.3751 42.8624 18.8251 45.375 15.7501 45.375H15.7127C12.6377 45.375 10.1251 42.8251 10.1251 39.7126C10.1251 36.6376 12.6751 34.125 15.7501 34.125Z" fill="#084B6D"/>
        </svg>