<svg width="48" height="48" viewBox="0 0 48 48" fill="none" xmlns="http://www.w3.org/2000/svg">
    <path d="M11.9999 7.875C11.6999 7.875 11.4 7.98765 11.2125 8.21265L3.71251 15.7126C3.48751 15.9001 3.37486 16.2 3.37486 16.5V31.5C3.37486 32.1375 3.86236 32.625 4.49986 32.625C5.13736 32.625 5.62486 32.1375 5.62486 31.5V17.625H42.3749V31.5C42.3749 32.1375 42.8624 32.625 43.4999 32.625C44.1374 32.625 44.6249 32.1375 44.6249 31.5V16.5C44.6249 16.2 44.5122 15.9001 44.2872 15.7126L36.7872 8.21265C36.5997 7.98765 36.2999 7.875 35.9999 7.875H11.9999ZM12.4496 10.125H22.8749V15.375H7.19957L12.4496 10.125ZM25.1249 10.125H35.5502L40.8002 15.375H25.1249V10.125ZM41.2887 36.8818C40.7703 36.8936 40.298 37.2753 40.1996 37.8003C40.0871 38.4003 40.4997 39.0003 41.0997 39.1128L43.6874 39.5999C31.0499 47.7374 14.3625 47.2124 2.21251 38.0999C1.72501 37.7249 1.01207 37.8372 0.637069 38.3247C0.262069 38.8122 0.375155 39.5251 0.862655 39.9001C7.68765 45.0376 15.8622 47.5876 24.0372 47.5876C31.3122 47.5876 38.5877 45.5624 44.9252 41.4749L44.4374 43.9878C44.3249 44.5878 44.7375 45.1878 45.3375 45.3003C45.4125 45.3003 45.4874 45.3376 45.5624 45.3376C46.0874 45.3376 46.575 44.9625 46.65 44.4375L47.6249 39.2249C47.6624 38.9249 47.6249 38.6251 47.4374 38.4001C47.2874 38.1376 47.0247 37.9874 46.7247 37.9124L41.5121 36.9001C41.4371 36.8861 41.3627 36.8802 41.2887 36.8818Z" fill="#084B6D"/>
</svg>