<svg width="95" height="30" viewBox="0 0 95 30" fill="none" xmlns="http://www.w3.org/2000/svg">
    <path d="M19.3206 1.85997C19.2366 1.71997 19.0966 1.63598 18.9566 1.63598C18.8726 1.63598 18.7886 1.66398 18.7326 1.71997L18.5646 1.85997C18.3966 1.99997 18.2286 1.99997 18.0326 1.99997H3.72463C3.50063 1.99997 3.33263 1.99997 3.16463 1.85997L3.02463 1.71997C2.94063 1.66398 2.85663 1.63598 2.77263 1.63598C2.63263 1.63598 2.52063 1.71997 2.43663 1.85997L0.196625 5.94798C0.140625 6.05998 0.140625 6.11597 0.140625 6.19998C0.140625 6.33997 0.196625 6.45197 0.364625 6.56398L1.54063 7.17998C1.62463 7.23598 1.70863 7.26398 1.76463 7.26398C1.90463 7.26398 2.01663 7.17998 2.12863 7.01197L2.21263 6.87197C3.27663 5.05198 4.95662 4.29597 7.22463 4.29597H8.59663V18.66C8.59663 20.144 8.12063 21.264 6.72063 21.32H6.55263C6.27262 21.32 6.13263 21.488 6.13263 21.74V22.58C6.13263 22.86 6.27262 23 6.55263 23H15.1486C15.4286 23 15.5686 22.86 15.5686 22.58V21.74C15.5686 21.488 15.4286 21.32 15.1486 21.32H14.9526C13.5246 21.264 13.0766 20.144 13.0766 18.66V4.29597H14.5046C16.7726 4.29597 18.4806 5.05198 19.5446 6.87197L19.6286 7.01197C19.7126 7.17998 19.8246 7.26398 19.9646 7.26398C20.0486 7.26398 20.1326 7.23598 20.2166 7.17998L21.3926 6.56398C21.5326 6.45197 21.6166 6.33997 21.6166 6.19998C21.6166 6.14397 21.5886 6.05998 21.5326 5.94798L19.3206 1.85997Z" fill="#084B6D"/>
    <path d="M22.8757 9.27998C20.2437 10.456 18.7038 13.088 18.7038 15.86C18.7038 16.868 18.8997 17.932 19.3477 18.912C20.5798 21.684 23.2677 23.364 26.0398 23.364C26.9918 23.364 27.9718 23.168 28.8678 22.748C31.5278 21.572 33.0678 18.94 33.0678 16.168C33.0678 15.132 32.8717 14.096 32.4238 13.088C31.1918 10.316 28.5038 8.66397 25.7038 8.66397C24.7518 8.66397 23.7997 8.85998 22.8757 9.27998ZM23.7157 11.156C24.1077 10.988 24.4718 10.904 24.8358 10.904C26.5718 10.904 28.0557 12.668 28.9517 14.656C29.4277 15.72 29.7358 16.868 29.7358 17.904C29.7358 19.22 29.2598 20.312 28.0278 20.872C27.6637 21.04 27.2718 21.096 26.9078 21.096C25.1998 21.096 23.6877 19.36 22.8197 17.372C22.3438 16.308 22.0357 15.16 22.0357 14.096C22.0357 12.808 22.5117 11.688 23.7157 11.156Z" fill="#084B6D"/>
    <path d="M42.665 8.99998C42.385 8.99998 42.245 9.13997 42.245 9.41998V10.26C42.245 10.54 42.385 10.68 42.665 10.68H43.141C43.617 10.68 43.785 10.904 43.785 11.268C43.785 11.744 43.477 12.472 43.113 13.256L41.069 17.428L39.193 13.312C38.857 12.584 38.577 11.912 38.577 11.408C38.577 10.96 38.801 10.68 39.473 10.68H39.529C39.781 10.68 39.921 10.54 39.921 10.26V9.41998C39.921 9.13997 39.781 8.99998 39.529 8.99998H33.061C32.781 8.99998 32.641 9.13997 32.641 9.41998V10.26C32.641 10.54 32.781 10.68 33.061 10.68H33.117C33.817 10.68 34.069 11.072 34.741 12.444L38.857 20.984L35.721 27.676C35.609 27.928 35.665 28.124 35.917 28.236L37.345 28.964C37.597 29.076 37.793 28.992 37.905 28.768L46.025 12.444C46.669 11.044 47.061 10.68 47.677 10.68H48.069C48.349 10.68 48.489 10.54 48.489 10.26V9.41998C48.489 9.13997 48.349 8.99998 48.069 8.99998H42.665Z" fill="#084B6D"/>
    <path d="M49.647 16.98C49.647 21.6 52.671 23.336 56.395 23.336C60.931 23.336 63.731 20.34 63.731 16.028C63.731 10.624 59.951 8.63598 56.955 8.63598C55.359 8.63598 54.043 9.27998 53.567 10.008V0.655975C53.567 0.627975 53.567 0.599976 53.539 0.599976H53.455C53.427 0.627975 53.371 0.655975 53.343 0.683975C52.587 1.21597 51.019 2.27998 48.079 3.25997C47.827 3.37197 47.687 3.39997 47.687 3.65197V4.60398C47.659 4.77198 47.715 4.91197 47.995 4.93997C49.535 5.10797 49.647 6.67598 49.647 8.15998V16.98ZM53.567 11.828C54.239 11.352 54.967 11.128 55.695 11.128C58.551 11.128 60.119 13.368 60.119 16.952C60.119 19.248 59.391 21.544 56.675 21.544C55.079 21.544 53.567 20.34 53.567 17.568V11.828Z" fill="#084B6D"/>
    <path d="M68.7815 9.27998C66.1495 10.456 64.6095 13.088 64.6095 15.86C64.6095 16.868 64.8055 17.932 65.2535 18.912C66.4855 21.684 69.1735 23.364 71.9455 23.364C72.8975 23.364 73.8775 23.168 74.7735 22.748C77.4335 21.572 78.9735 18.94 78.9735 16.168C78.9735 15.132 78.7775 14.096 78.3295 13.088C77.0975 10.316 74.4095 8.66397 71.6095 8.66397C70.6575 8.66397 69.7055 8.85998 68.7815 9.27998ZM69.6215 11.156C70.0135 10.988 70.3775 10.904 70.7415 10.904C72.4775 10.904 73.9615 12.668 74.8575 14.656C75.3335 15.72 75.6415 16.868 75.6415 17.904C75.6415 19.22 75.1655 20.312 73.9335 20.872C73.5695 21.04 73.1775 21.096 72.8135 21.096C71.1055 21.096 69.5935 19.36 68.7255 17.372C68.2495 16.308 67.9415 15.16 67.9415 14.096C67.9415 12.808 68.4175 11.688 69.6215 11.156Z" fill="#084B6D"/>
    <path d="M94.316 21.348C93.616 21.348 92.832 20.76 91.852 19.584L88.576 15.58L91.04 12.444C91.992 11.212 92.384 10.68 93.532 10.68H93.924C94.204 10.68 94.344 10.54 94.344 10.26V9.41998C94.344 9.13997 94.204 8.99998 93.924 8.99998H88.772C88.52 8.99998 88.352 9.13997 88.352 9.41998V10.26C88.352 10.54 88.52 10.68 88.772 10.68H89.052C89.528 10.68 89.724 10.792 89.724 11.016C89.724 11.324 89.416 11.772 88.912 12.444L87.484 14.264L85.608 11.996C85.3 11.604 85.132 11.296 85.132 11.1C85.132 10.792 85.468 10.68 86.14 10.68H86.196C86.476 10.68 86.616 10.54 86.616 10.26V9.41998C86.616 9.13997 86.476 8.99998 86.196 8.99998H79.168C78.916 8.99998 78.748 9.13997 78.748 9.41998V10.26C78.748 10.54 78.916 10.68 79.168 10.68H79.252C79.952 10.68 80.736 11.268 81.716 12.444L84.404 15.72L81.38 19.584C80.428 20.816 80.064 21.348 78.916 21.348H78.58V21.376C78.44 21.432 78.384 21.572 78.384 21.768V22.608C78.384 22.804 78.44 22.916 78.58 22.972V23H83.928C84.208 23 84.348 22.86 84.348 22.608V21.768C84.348 21.488 84.208 21.348 83.928 21.348H83.368C82.892 21.348 82.696 21.236 82.696 20.984C82.696 20.704 83.004 20.228 83.536 19.584L85.496 17.036L87.904 19.948C88.184 20.284 88.296 20.536 88.296 20.732C88.296 21.236 87.652 21.348 87.288 21.348H87.232C86.952 21.348 86.812 21.488 86.812 21.768V22.608C86.812 22.86 86.952 23 87.232 23H94.4C94.652 23 94.82 22.86 94.82 22.608V21.768C94.82 21.488 94.652 21.348 94.4 21.348H94.316Z" fill="#084B6D"/>
    </svg>