<svg width="114" height="35" viewBox="0 0 114 35" fill="none" xmlns="http://www.w3.org/2000/svg">
    <path d="M23.184 2.23197C23.0832 2.06397 22.9152 1.96317 22.7472 1.96317C22.6464 1.96317 22.5456 1.99677 22.4784 2.06397L22.2768 2.23197C22.0752 2.39997 21.8736 2.39997 21.6384 2.39997H4.46877C4.19997 2.39997 3.99837 2.39997 3.79677 2.23197L3.62877 2.06397C3.52797 1.99677 3.42717 1.96317 3.32637 1.96317C3.15837 1.96317 3.02397 2.06397 2.92317 2.23197L0.235169 7.13757C0.167969 7.27197 0.167969 7.33917 0.167969 7.43997C0.167969 7.60797 0.235169 7.74237 0.436769 7.87677L1.84797 8.61597C1.94877 8.68317 2.04957 8.71677 2.11677 8.71677C2.28477 8.71677 2.41917 8.61597 2.55357 8.41437L2.65437 8.24637C3.93117 6.06237 5.94717 5.15517 8.66877 5.15517H10.3152V22.392C10.3152 24.1728 9.74397 25.5168 8.06397 25.584H7.86237C7.52637 25.584 7.35837 25.7856 7.35837 26.088V27.096C7.35837 27.432 7.52637 27.6 7.86237 27.6H18.1776C18.5136 27.6 18.6816 27.432 18.6816 27.096V26.088C18.6816 25.7856 18.5136 25.584 18.1776 25.584H17.9424C16.2288 25.5168 15.6912 24.1728 15.6912 22.392V5.15517H17.4048C20.1264 5.15517 22.176 6.06237 23.4528 8.24637L23.5536 8.41437C23.6544 8.61597 23.7888 8.71677 23.9568 8.71677C24.0576 8.71677 24.1584 8.68317 24.2592 8.61597L25.6704 7.87677C25.8384 7.74237 25.9392 7.60797 25.9392 7.43997C25.9392 7.37277 25.9056 7.27197 25.8384 7.13757L23.184 2.23197Z" fill="white"/>
    <path d="M27.4501 11.136C24.2917 12.5472 22.4437 15.7056 22.4437 19.032C22.4437 20.2416 22.6789 21.5184 23.2165 22.6944C24.6949 26.0208 27.9205 28.0368 31.2469 28.0368C32.3893 28.0368 33.5653 27.8016 34.6405 27.2976C37.8325 25.8864 39.6805 22.728 39.6805 19.4016C39.6805 18.1584 39.4453 16.9152 38.9077 15.7056C37.4293 12.3792 34.2037 10.3968 30.8437 10.3968C29.7013 10.3968 28.5589 10.632 27.4501 11.136ZM28.4581 13.3872C28.9285 13.1856 29.3653 13.0848 29.8021 13.0848C31.8853 13.0848 33.6661 15.2016 34.7413 17.5872C35.3125 18.864 35.6821 20.2416 35.6821 21.4848C35.6821 23.064 35.1109 24.3744 33.6325 25.0464C33.1957 25.248 32.7253 25.3152 32.2885 25.3152C30.2389 25.3152 28.4245 23.232 27.3829 20.8464C26.8117 19.5696 26.4421 18.192 26.4421 16.9152C26.4421 15.3696 27.0133 14.0256 28.4581 13.3872Z" fill="white"/>
    <path d="M51.1972 10.8C50.8612 10.8 50.6932 10.968 50.6932 11.304V12.312C50.6932 12.648 50.8612 12.816 51.1972 12.816H51.7684C52.3396 12.816 52.5412 13.0848 52.5412 13.5216C52.5412 14.0928 52.1716 14.9664 51.7348 15.9072L49.282 20.9136L47.0308 15.9744C46.6276 15.1008 46.2916 14.2944 46.2916 13.6896C46.2916 13.152 46.5604 12.816 47.3668 12.816H47.434C47.7364 12.816 47.9044 12.648 47.9044 12.312V11.304C47.9044 10.968 47.7364 10.8 47.434 10.8H39.6724C39.3364 10.8 39.1684 10.968 39.1684 11.304V12.312C39.1684 12.648 39.3364 12.816 39.6724 12.816H39.7396C40.5796 12.816 40.882 13.2864 41.6884 14.9328L46.6276 25.1808L42.8644 33.2112C42.73 33.5136 42.7972 33.7488 43.0996 33.8832L44.8132 34.7568C45.1156 34.8912 45.3508 34.7904 45.4852 34.5216L55.2292 14.9328C56.002 13.2528 56.4724 12.816 57.2116 12.816H57.682C58.018 12.816 58.186 12.648 58.186 12.312V11.304C58.186 10.968 58.018 10.8 57.682 10.8H51.1972Z" fill="white"/>
    <path d="M59.5757 20.376C59.5757 25.92 63.2045 28.0032 67.6733 28.0032C73.1165 28.0032 76.4765 24.408 76.4765 19.2336C76.4765 12.7488 71.9405 10.3632 68.3453 10.3632C66.4301 10.3632 64.8509 11.136 64.2797 12.0096V0.78717C64.2797 0.75357 64.2797 0.719971 64.2461 0.719971H64.1453C64.1117 0.75357 64.0445 0.78717 64.0109 0.820769C63.1037 1.45917 61.2221 2.73597 57.6941 3.91197C57.3917 4.04637 57.2237 4.07997 57.2237 4.38237V5.52477C57.1901 5.72637 57.2573 5.89437 57.5933 5.92797C59.4413 6.12957 59.5757 8.01117 59.5757 9.79197V20.376ZM64.2797 14.1936C65.0861 13.6224 65.9597 13.3536 66.8333 13.3536C70.2605 13.3536 72.1421 16.0416 72.1421 20.3424C72.1421 23.0976 71.2685 25.8528 68.0093 25.8528C66.0941 25.8528 64.2797 24.408 64.2797 21.0816V14.1936Z" fill="white"/>
    <path d="M82.5371 11.136C79.3787 12.5472 77.5307 15.7056 77.5307 19.032C77.5307 20.2416 77.7659 21.5184 78.3035 22.6944C79.7819 26.0208 83.0075 28.0368 86.3339 28.0368C87.4763 28.0368 88.6523 27.8016 89.7275 27.2976C92.9195 25.8864 94.7675 22.728 94.7675 19.4016C94.7675 18.1584 94.5323 16.9152 93.9947 15.7056C92.5163 12.3792 89.2907 10.3968 85.9307 10.3968C84.7883 10.3968 83.6459 10.632 82.5371 11.136ZM83.5451 13.3872C84.0155 13.1856 84.4523 13.0848 84.8891 13.0848C86.9723 13.0848 88.7531 15.2016 89.8283 17.5872C90.3995 18.864 90.7691 20.2416 90.7691 21.4848C90.7691 23.064 90.1979 24.3744 88.7195 25.0464C88.2827 25.248 87.8123 25.3152 87.3755 25.3152C85.3259 25.3152 83.5115 23.232 82.4699 20.8464C81.8987 19.5696 81.5291 18.192 81.5291 16.9152C81.5291 15.3696 82.1003 14.0256 83.5451 13.3872Z" fill="white"/>
    <path d="M113.178 25.6176C112.338 25.6176 111.398 24.912 110.222 23.5008L106.29 18.696L109.247 14.9328C110.39 13.4544 110.86 12.816 112.238 12.816H112.708C113.044 12.816 113.212 12.648 113.212 12.312V11.304C113.212 10.968 113.044 10.8 112.708 10.8H106.526C106.223 10.8 106.022 10.968 106.022 11.304V12.312C106.022 12.648 106.223 12.816 106.526 12.816H106.862C107.433 12.816 107.668 12.9504 107.668 13.2192C107.668 13.5888 107.298 14.1264 106.694 14.9328L104.98 17.1168L102.729 14.3952C102.359 13.9248 102.158 13.5552 102.158 13.32C102.158 12.9504 102.561 12.816 103.367 12.816H103.434C103.77 12.816 103.938 12.648 103.938 12.312V11.304C103.938 10.968 103.77 10.8 103.434 10.8H95.0008C94.6984 10.8 94.4968 10.968 94.4968 11.304V12.312C94.4968 12.648 94.6984 12.816 95.0008 12.816H95.1016C95.9416 12.816 96.8824 13.5216 98.0584 14.9328L101.284 18.864L97.6552 23.5008C96.5128 24.9792 96.076 25.6176 94.6984 25.6176H94.2952V25.6512C94.1272 25.7184 94.06 25.8864 94.06 26.1216V27.1296C94.06 27.3648 94.1272 27.4992 94.2952 27.5664V27.6H100.713C101.049 27.6 101.217 27.432 101.217 27.1296V26.1216C101.217 25.7856 101.049 25.6176 100.713 25.6176H100.041C99.4696 25.6176 99.2344 25.4832 99.2344 25.1808C99.2344 24.8448 99.604 24.2736 100.242 23.5008L102.594 20.4432L105.484 23.9376C105.82 24.3408 105.954 24.6432 105.954 24.8784C105.954 25.4832 105.182 25.6176 104.745 25.6176H104.678C104.342 25.6176 104.174 25.7856 104.174 26.1216V27.1296C104.174 27.432 104.342 27.6 104.678 27.6H113.279C113.582 27.6 113.783 27.432 113.783 27.1296V26.1216C113.783 25.7856 113.582 25.6176 113.279 25.6176H113.178Z" fill="white"/>
    </svg>
    
    