<svg width="100%" height="100%" viewBox="0 0 100 100" fill="none" xmlns="http://www.w3.org/2000/svg" preserveAspectRatio="none">
<path fill-rule="evenodd" clip-rule="evenodd" d="M50 0H0V100H0.14901C0.45984 100 0.766392 96.3776 1.04434 89.4202C3.15955 36.4734 4.4781 10 5 10C5.5219 10 6.84045 36.4734 8.95566 89.4202C9.23361 96.3776 9.54016 100 9.85099 100H10.149C10.4598 100 10.7664 96.3776 11.0443 89.4202C13.1595 36.4734 14.4781 10 15 10C15.5219 10 16.8405 36.4734 18.9557 89.4202C19.2336 96.3776 19.5402 100 19.851 100H20.149C20.4598 100 20.7664 96.3776 21.0443 89.4202C23.1595 36.4734 24.4781 10 25 10C25.5219 10 26.8405 36.4734 28.9557 89.4202C29.2336 96.3776 29.5402 100 29.851 100H30.149C30.4598 100 30.7664 96.3776 31.0443 89.4202C33.1595 36.4734 34.4781 10 35 10C35.5219 10 36.8405 36.4734 38.9557 89.4202C39.2336 96.3776 39.5402 100 39.851 100H40.149C40.4598 100 40.7664 96.3776 41.0443 89.4202C43.1595 36.4734 44.4781 10 45 10C45.5219 10 46.8405 36.4734 48.9557 89.4202C49.2336 96.3776 49.5402 100 49.851 100H50V0Z" fill="white"/>
<path fill-rule="evenodd" clip-rule="evenodd" d="M100 0H50V100H50.149C50.4598 100 50.7664 96.3776 51.0443 89.4202C53.1595 36.4734 54.4781 10 55 10C55.5219 10 56.8405 36.4734 58.9557 89.4202C59.2336 96.3776 59.5402 100 59.851 100H60.149C60.4598 100 60.7664 96.3776 61.0443 89.4202C63.1595 36.4734 64.4781 10 65 10C65.5219 10 66.8405 36.4734 68.9557 89.4202C69.2336 96.3776 69.5402 100 69.851 100H70.149C70.4598 100 70.7664 96.3776 71.0443 89.4202C73.1595 36.4734 74.4781 10 75 10C75.5219 10 76.8405 36.4734 78.9557 89.4202C79.2336 96.3776 79.5402 100 79.851 100H80.149C80.4598 100 80.7664 96.3776 81.0443 89.4202C83.1596 36.4734 84.4781 10 85 10C85.5219 10 86.8405 36.4734 88.9557 89.4202C89.2336 96.3776 89.5402 100 89.851 100H90.149C90.4598 100 90.7664 96.3776 91.0443 89.4202C93.1596 36.4734 94.4781 10 95 10C95.5219 10 96.8405 36.4734 98.9557 89.4202C99.2336 96.3776 99.5402 100 99.851 100H100V0Z" fill="white"/>
</svg>
