<svg width="106" height="24" viewBox="0 0 106 24" fill="none" xmlns="http://www.w3.org/2000/svg">
<path d="M0.464844 15.256C0.464844 14.024 0.632844 12.876 0.968844 11.812C1.30484 10.7293 1.77151 9.86133 2.36884 9.208C3.47018 7.99467 4.95418 7.388 6.82084 7.388C7.69818 7.388 8.47284 7.54666 9.14484 7.864C9.81684 8.18133 10.4235 8.75066 10.9648 9.572V3.048L8.80884 2.516V0.947998H14.5208V20.688L16.6768 21.22V22.788L11.4968 23.068L11.2728 20.772C10.6942 21.6493 10.0408 22.256 9.31284 22.592C8.58484 22.9093 7.73551 23.068 6.76484 23.068C5.73818 23.068 4.87018 22.9187 4.16084 22.62C3.47018 22.3027 2.88218 21.864 2.39684 21.304C1.81818 20.6507 1.35151 19.8013 0.996844 18.756C0.642177 17.7107 0.464844 16.544 0.464844 15.256ZM10.9648 15.34C10.9648 14.2573 10.8715 13.324 10.6848 12.54C10.4982 11.7373 10.2742 11.1213 10.0128 10.692C9.43418 9.75866 8.57551 9.292 7.43684 9.292C6.98884 9.292 6.53151 9.38533 6.06484 9.572C5.59818 9.75866 5.23418 10.0947 4.97284 10.58C4.73018 11.028 4.54351 11.644 4.41284 12.428C4.30084 13.1933 4.24484 14.052 4.24484 15.004C4.24484 16.0867 4.31951 17.0293 4.46884 17.832C4.61818 18.6347 4.80484 19.2507 5.02884 19.68C5.29018 20.1653 5.64484 20.5387 6.09284 20.8C6.54084 21.0613 7.03551 21.192 7.57684 21.192C8.00618 21.192 8.44484 21.0987 8.89284 20.912C9.34084 20.7067 9.71418 20.3707 10.0128 19.904C10.3115 19.4187 10.5448 18.784 10.7128 18C10.8808 17.216 10.9648 16.3293 10.9648 15.34Z" fill="#084B6D"/>
<path d="M32.7976 15.228C32.7976 16.4227 32.6203 17.552 32.2656 18.616C31.9296 19.6613 31.435 20.5387 30.7816 21.248C30.1656 21.9013 29.4283 22.368 28.5696 22.648C27.711 22.928 26.6936 23.068 25.5176 23.068C24.3416 23.068 23.3243 22.928 22.4656 22.648C21.607 22.368 20.8696 21.9013 20.2536 21.248C19.6003 20.5387 19.0963 19.6613 18.7416 18.616C18.4056 17.552 18.2376 16.4227 18.2376 15.228C18.2376 14.0333 18.4056 12.9133 18.7416 11.868C19.0963 10.804 19.6003 9.91733 20.2536 9.208C20.8696 8.55466 21.607 8.088 22.4656 7.808C23.3243 7.528 24.3416 7.388 25.5176 7.388C26.6936 7.388 27.711 7.528 28.5696 7.808C29.4283 8.088 30.1656 8.55466 30.7816 9.208C31.435 9.91733 31.9296 10.804 32.2656 11.868C32.6203 12.9133 32.7976 14.0333 32.7976 15.228ZM22.9696 20.072C23.4736 20.8187 24.323 21.192 25.5176 21.192C26.7123 21.192 27.5616 20.8187 28.0656 20.072C28.663 19.1573 28.9616 17.5427 28.9616 15.228C28.9616 12.9133 28.663 11.2987 28.0656 10.384C27.5616 9.63733 26.7123 9.264 25.5176 9.264C24.323 9.264 23.4736 9.63733 22.9696 10.384C22.3723 11.2987 22.0736 12.9133 22.0736 15.228C22.0736 17.5427 22.3723 19.1573 22.9696 20.072Z" fill="#084B6D"/>
<path d="M36.8506 9.768L34.6946 9.236V7.668H39.5666L40.1826 10.468H40.2946C40.836 9.516 41.5546 8.76933 42.4506 8.228C43.3653 7.668 44.336 7.388 45.3626 7.388C46.1466 7.388 46.828 7.53733 47.4066 7.836C48.004 8.116 48.4426 8.47066 48.7226 8.9C49.0213 9.36666 49.264 9.98267 49.4506 10.748C50.048 9.684 50.8226 8.86266 51.7746 8.284C52.7266 7.68667 53.744 7.388 54.8266 7.388C55.5733 7.388 56.2453 7.53733 56.8426 7.836C57.44 8.116 57.8973 8.508 58.2146 9.012C58.3826 9.27333 58.5226 9.59066 58.6346 9.964C58.7466 10.3373 58.84 10.804 58.9146 11.364C58.9893 11.9053 59.036 12.5493 59.0546 13.296C59.092 14.0427 59.1106 14.92 59.1106 15.928V20.688L61.2666 21.22V22.788H53.6786V21.22L55.5546 20.688V15.284C55.5546 14.6867 55.5453 14.1733 55.5266 13.744C55.508 13.296 55.48 12.9133 55.4426 12.596C55.4053 12.26 55.3586 11.98 55.3026 11.756C55.2466 11.532 55.1813 11.336 55.1066 11.168C54.92 10.72 54.668 10.412 54.3506 10.244C54.052 10.0573 53.7346 9.964 53.3986 9.964C52.9133 9.964 52.484 10.0293 52.1106 10.16C51.7373 10.2907 51.3733 10.5147 51.0186 10.832C50.608 11.2053 50.3 11.644 50.0946 12.148C49.908 12.6333 49.796 13.268 49.7586 14.052V20.688L51.6346 21.22V22.788H44.3266V21.22L46.2026 20.688V15.284C46.2026 14.6867 46.1933 14.1733 46.1746 13.744C46.156 13.296 46.128 12.9133 46.0906 12.596C46.0533 12.26 46.0066 11.98 45.9506 11.756C45.8946 11.532 45.8293 11.336 45.7546 11.168C45.568 10.72 45.316 10.412 44.9986 10.244C44.7 10.0573 44.3826 9.964 44.0466 9.964C43.5613 9.964 43.132 10.0293 42.7586 10.16C42.3853 10.2907 42.0213 10.5147 41.6666 10.832C41.256 11.2053 40.948 11.644 40.7426 12.148C40.556 12.6333 40.444 13.268 40.4066 14.052V20.688L42.2826 21.22V22.788H34.6946V21.22L36.8506 20.688V9.768Z" fill="#084B6D"/>
<path d="M62.5579 9.236V7.668H68.2699V20.688L70.4259 21.22V22.788H62.5579V21.22L64.7139 20.688V9.768L62.5579 9.236ZM64.4059 3.412C64.4059 2.81466 64.5832 2.32933 64.9379 1.956C65.3112 1.58266 65.8246 1.396 66.4779 1.396C67.1312 1.396 67.6446 1.58266 68.0179 1.956C68.3912 2.32933 68.5779 2.81466 68.5779 3.412C68.5779 4.00933 68.3912 4.49466 68.0179 4.868C67.6632 5.22266 67.1499 5.4 66.4779 5.4C65.8059 5.4 65.2926 5.22266 64.9379 4.868C64.5832 4.49466 64.4059 4.00933 64.4059 3.412Z" fill="#084B6D"/>
<path d="M73.9834 9.768L71.8274 9.236V7.668H76.6994L77.3154 10.468H77.4274C77.9874 9.516 78.7341 8.76933 79.6674 8.228C80.6194 7.668 81.6461 7.388 82.7474 7.388C83.4941 7.388 84.1661 7.51867 84.7634 7.78C85.3608 8.04133 85.8368 8.41466 86.1914 8.9C86.5648 9.42266 86.8261 10.16 86.9754 11.112C87.1434 12.0453 87.2274 13.3147 87.2274 14.92V20.688L89.3834 21.22V22.788H81.7954V21.22L83.6714 20.688V15.284C83.6714 14.164 83.6341 13.296 83.5594 12.68C83.5034 12.0453 83.3914 11.5413 83.2234 11.168C83.0181 10.6827 82.7381 10.3467 82.3834 10.16C82.0288 9.97333 81.6088 9.88 81.1234 9.88C80.2088 9.88 79.4341 10.1787 78.7994 10.776C78.0341 11.4853 77.6141 12.5773 77.5394 14.052V20.688L79.4154 21.22V22.788H71.8274V21.22L73.9834 20.688V9.768Z" fill="#084B6D"/>
<path d="M90.6666 19.484C90.6666 18.7187 90.8346 18.0467 91.1706 17.468C91.5253 16.8707 92.0573 16.348 92.7666 15.9C93.4946 15.452 94.4093 15.0693 95.5106 14.752C96.6306 14.4347 97.956 14.1547 99.4866 13.912C99.3933 12.9787 99.2813 12.2693 99.1506 11.784C99.0386 11.28 98.88 10.8413 98.6746 10.468C98.4133 10.0387 98.1053 9.69333 97.7506 9.432C97.4146 9.17066 96.976 9.04 96.4346 9.04C96.0426 9.04 95.6786 9.11467 95.3426 9.264C95.0253 9.41333 94.8106 9.61866 94.6986 9.88C94.96 10.0293 95.1373 10.244 95.2306 10.524C95.3426 10.7853 95.3986 11.0187 95.3986 11.224C95.3986 11.6907 95.1933 12.1107 94.7826 12.484C94.372 12.8387 93.8773 13.016 93.2986 13.016C92.7013 13.016 92.2346 12.8293 91.8986 12.456C91.5813 12.064 91.4226 11.5787 91.4226 11C91.4226 10.4213 91.5813 9.908 91.8986 9.46C92.216 9.012 92.636 8.63867 93.1586 8.34C93.6813 8.02266 94.26 7.78933 94.8946 7.64C95.548 7.472 96.2013 7.388 96.8546 7.388C97.732 7.388 98.516 7.51867 99.2066 7.78C99.916 8.02267 100.485 8.33067 100.915 8.704C102.389 10.0107 103.127 12.0827 103.127 14.92V18.56C103.127 19.4933 103.183 20.1373 103.295 20.492C103.425 20.828 103.696 20.996 104.107 20.996H105.367V22.256C103.649 22.7973 102.352 23.068 101.475 23.068C101.157 23.068 100.896 23.0213 100.691 22.928C100.504 22.8347 100.355 22.676 100.243 22.452C100.131 22.228 100.047 21.92 99.9906 21.528C99.9533 21.136 99.9346 20.632 99.9346 20.016H99.8226C99.244 20.968 98.4786 21.7147 97.5266 22.256C96.5746 22.7973 95.548 23.068 94.4466 23.068C93.2706 23.068 92.3466 22.7507 91.6746 22.116C91.0026 21.4813 90.6666 20.604 90.6666 19.484ZM96.1546 21.024C96.5466 21.024 96.976 20.9027 97.4426 20.66C97.928 20.3987 98.348 20.0253 98.7026 19.54C98.908 19.2787 99.104 18.9053 99.2906 18.42C99.4773 17.9347 99.5706 17.356 99.5706 16.684C99.5706 16.46 99.5613 16.2173 99.5426 15.956C99.524 15.676 99.496 15.4053 99.4586 15.144C98.488 15.3493 97.676 15.5733 97.0226 15.816C96.388 16.04 95.8746 16.292 95.4826 16.572C95.0906 16.852 94.8106 17.1787 94.6426 17.552C94.4746 17.9067 94.3906 18.3173 94.3906 18.784C94.3906 19.6053 94.5773 20.184 94.9506 20.52C95.324 20.856 95.7253 21.024 96.1546 21.024Z" fill="#084B6D"/>
</svg>