<svg width="48" height="48" viewBox="0 0 48 48" fill="none" xmlns="http://www.w3.org/2000/svg">
        <path d="M21.75 0.75C18.1875 0.75 14.8124 1.95015 12.0374 4.27515C11.0999 5.02515 10.6876 6.3 10.8376 7.5C7.53765 10.95 5.625 16.275 5.625 22.875C5.625 23.5125 6.1125 24 6.75 24C7.3875 24 7.875 23.5125 7.875 22.875C7.875 17.325 9.33765 12.7878 11.9626 9.67529C12.3751 10.0503 12.8622 10.2749 13.3872 10.3499C13.4997 10.3499 13.6122 10.3872 13.7622 10.3872C14.3622 10.3872 14.9622 10.1624 15.4497 9.78735C17.2497 8.24985 19.3875 7.5 21.75 7.5C24.0375 7.5 26.1375 8.21279 27.9375 9.67529C28.5375 10.1628 29.2501 10.3503 29.9626 10.2378C30.4876 10.1628 30.9747 9.9 31.3872 9.5625C34.0872 12.6 35.625 17.2125 35.625 22.875C35.625 23.5125 36.1125 24 36.75 24C37.3875 24 37.875 23.5125 37.875 22.875C37.875 16.1625 35.9247 10.8 32.5122 7.3125C32.6247 6.1125 32.2126 4.83765 31.2751 4.08765C28.5001 1.91265 25.2 0.75 21.75 0.75ZM21.7126 3C24.7126 3 27.45 3.97485 29.8125 5.84985C30.3375 6.22485 30.4124 7.125 30.0374 7.6875C29.9249 7.875 29.775 7.98779 29.625 7.98779C29.5125 7.98779 29.4372 7.9875 29.3247 7.875C27.1497 6.15 24.525 5.25 21.75 5.25C18.9 5.25 16.2003 6.22515 13.9878 8.02515C13.8753 8.10015 13.8 8.13721 13.6875 8.13721C13.5375 8.09971 13.3876 8.02515 13.2751 7.83765C12.9001 7.31265 12.9753 6.375 13.4253 6C15.8628 4.0125 18.6376 3 21.7126 3ZM10.875 23.625C9.1875 23.625 7.65029 24.4874 6.48779 25.9124C4.38779 26.0999 2.625 28.7625 2.625 31.875C2.625 34.9875 4.38779 37.6501 6.48779 37.8376C7.61279 39.2251 9.1875 40.125 10.875 40.125C14.4 40.125 17.25 36.4125 17.25 31.875C17.25 27.3375 14.4 23.625 10.875 23.625ZM32.625 23.625C29.1 23.625 26.25 27.3375 26.25 31.875C26.25 36.4125 29.1 40.125 32.625 40.125C34.3125 40.125 35.8497 39.2626 37.0122 37.8376C39.1497 37.6501 40.875 34.9875 40.875 31.875C40.875 28.7625 39.1122 26.0999 37.0122 25.9124C35.8872 24.5249 34.3125 23.625 32.625 23.625ZM32.625 25.875C33.375 25.875 34.0875 26.1747 34.6875 26.6997C33.45 27.7497 32.625 29.7 32.625 31.875C32.625 34.05 33.45 35.9628 34.6875 37.0503C34.0875 37.5753 33.375 37.875 32.625 37.875C30.375 37.875 28.5 35.1375 28.5 31.875C28.5 28.6125 30.375 25.875 32.625 25.875ZM10.875 28.125C11.55 28.125 12.75 29.55 12.75 31.875C12.75 34.2 11.55 35.625 10.875 35.625C10.2 35.625 9 34.2 9 31.875C9 29.55 10.2 28.125 10.875 28.125ZM35.25 40.125C34.6125 40.125 34.125 40.6125 34.125 41.25C34.125 42.075 33.45 42.75 32.625 42.75H23.4375C22.9875 41.4375 21.7125 40.5 20.25 40.5H18.75C16.875 40.5 15.375 42 15.375 43.875C15.375 45.75 16.875 47.25 18.75 47.25H20.25C21.7125 47.25 22.95 46.3125 23.4375 45H32.625C34.6875 45 36.375 43.3125 36.375 41.25C36.375 40.6125 35.8875 40.125 35.25 40.125ZM18.75 42.75H20.25C20.8875 42.75 21.375 43.2375 21.375 43.875C21.375 44.5125 20.8875 45 20.25 45H18.75C18.1125 45 17.625 44.5125 17.625 43.875C17.625 43.2375 18.1125 42.75 18.75 42.75Z" fill="#084B6D"/>
    </svg>