<svg width="69" height="39" viewBox="0 0 69 39" fill="none" xmlns="http://www.w3.org/2000/svg">
<path d="M29.1182 26.298C27.7142 37.206 15.9962 37.206 13.0802 37.206H11.1362V5.616C11.1362 1.728 13.2962 0.810002 15.6182 0.810002V0H0.660156V0.810002C2.98216 0.810002 4.49416 2.214 4.49416 5.508V31.32C4.49416 34.992 3.41416 37.206 1.09216 37.206V38.016H29.8742V26.298H29.1182Z" fill="#084B6D"/>
<path d="M40.8712 26.136L47.0812 9.288L53.7772 26.136H40.8712ZM68.4652 37.206C67.0072 37.098 65.7652 37.368 63.9832 33.048C63.9832 33.048 60.3652 23.814 50.4292 0H49.7272L40.4932 24.624C35.5252 37.206 34.1752 37.152 32.4472 37.206V38.016H45.1372V37.206C37.0912 37.53 39.9532 29.106 40.7092 26.946H54.1012L55.8292 31.266C56.4772 32.778 58.1512 37.206 54.5872 37.206V38.016H68.4652V37.206Z" fill="#084B6D"/>
</svg>