<svg width="137" height="16" viewBox="0 0 137 16" fill="none" xmlns="http://www.w3.org/2000/svg">
<path d="M3.42891 9.26803H10.7089C13.2289 9.26803 14.9089 7.61603 14.9089 5.20803C14.9089 2.68803 13.2289 1.00803 10.7089 1.00803H0.628906V15.008H3.42891V9.26803ZM3.42891 3.52803H10.7089C11.5489 3.52803 12.1089 4.08803 12.1089 4.92803V5.34803C12.1089 6.18803 11.5489 6.74803 10.7089 6.74803H3.42891V3.52803Z" fill="#084B6D"/>
<path d="M24.5722 0.728027C20.3722 0.728027 17.2922 3.80803 17.2922 8.00803C17.2922 12.208 20.3722 15.288 24.5722 15.288C28.7722 15.288 31.8522 12.208 31.8522 8.00803C31.8522 3.80803 28.7722 0.728027 24.5722 0.728027ZM24.5722 12.628C22.0522 12.628 20.2322 10.668 20.2322 8.00803C20.2322 5.34803 22.0522 3.38803 24.5722 3.38803C27.0922 3.38803 28.9122 5.34803 28.9122 8.00803C28.9122 10.668 27.0922 12.628 24.5722 12.628Z" fill="#084B6D"/>
<path d="M41.9355 0.728027C37.7355 0.728027 34.6555 3.80803 34.6555 8.00803C34.6555 12.208 37.7355 15.288 41.9355 15.288C46.1355 15.288 49.2155 12.208 49.2155 8.00803C49.2155 3.80803 46.1355 0.728027 41.9355 0.728027ZM41.9355 12.628C39.4155 12.628 37.5955 10.668 37.5955 8.00803C37.5955 5.34803 39.4155 3.38803 41.9355 3.38803C44.4555 3.38803 46.2755 5.34803 46.2755 8.00803C46.2755 10.668 44.4555 12.628 41.9355 12.628Z" fill="#084B6D"/>
<path d="M59.2988 12.628C56.7788 12.628 54.9588 10.668 54.9588 8.00803C54.9588 5.34803 56.7788 3.38803 59.2988 3.38803C61.3988 3.38803 63.0227 4.73203 63.4987 6.74803H66.4948C65.9348 3.19203 63.0788 0.728027 59.2988 0.728027C55.0988 0.728027 52.0187 3.80803 52.0187 8.00803C52.0187 12.208 55.0988 15.288 59.2988 15.288C63.0788 15.288 65.9348 12.824 66.4948 9.26803H63.4987C63.0227 11.256 61.3988 12.628 59.2988 12.628Z" fill="#084B6D"/>
<path d="M72.8 1.00803H70V15.008H72.8V9.26803H81.2V15.008H84V1.00803H81.2V6.74803H72.8V1.00803Z" fill="#084B6D"/>
<path d="M90.7309 1.00803H88.2109V15.008H91.0109V5.20803H91.0669C91.0669 5.20803 91.3469 6.10403 91.8509 6.77603L93.8109 9.40803H96.6109L98.5709 6.77603C99.0749 6.10403 99.3549 5.20803 99.3549 5.20803H99.4109V15.008H102.211V1.00803H99.6909L95.3229 6.88803H95.1269L90.7309 1.00803Z" fill="#084B6D"/>
<path d="M108.13 15.008L109.278 12.208H116.67L117.818 15.008H120.842L115.102 1.00803H110.902L105.162 15.008H108.13ZM110.314 9.68803L112.834 3.52803H113.114L115.634 9.68803H110.314Z" fill="#084B6D"/>
<path d="M133.553 9.40803C133.021 11.34 131.425 12.628 129.381 12.628C126.861 12.628 125.041 10.668 125.041 8.00803C125.041 5.34803 126.861 3.38803 129.381 3.38803C130.697 3.38803 131.817 3.92003 132.601 4.78803L134.589 2.77203C133.301 1.48403 131.481 0.728027 129.381 0.728027C125.181 0.728027 122.101 3.80803 122.101 8.00803C122.101 12.208 125.181 15.288 129.381 15.288C133.581 15.288 136.661 12.208 136.661 8.00803C136.661 7.61603 136.633 7.25203 136.577 6.88803H129.381V9.40803H133.553Z" fill="#084B6D"/>
</svg>
